<svg width="21" height="21" viewBox="0 0 21 21" fill="none" xmlns="http://www.w3.org/2000/svg">
<path d="M7.875 2.625H3.5C3.01675 2.625 2.625 3.01675 2.625 3.5V9.625C2.625 10.1082 3.01675 10.5 3.5 10.5H7.875C8.35825 10.5 8.75 10.1082 8.75 9.625V3.5C8.75 3.01675 8.35825 2.625 7.875 2.625Z" stroke="white" stroke-width="2" stroke-linecap="round" stroke-linejoin="round"/>
<path d="M17.5 2.625H13.125C12.6418 2.625 12.25 3.01675 12.25 3.5V6.125C12.25 6.60825 12.6418 7 13.125 7H17.5C17.9832 7 18.375 6.60825 18.375 6.125V3.5C18.375 3.01675 17.9832 2.625 17.5 2.625Z" stroke="white" stroke-width="2" stroke-linecap="round" stroke-linejoin="round"/>
<path d="M17.5 10.5H13.125C12.6418 10.5 12.25 10.8918 12.25 11.375V17.5C12.25 17.9832 12.6418 18.375 13.125 18.375H17.5C17.9832 18.375 18.375 17.9832 18.375 17.5V11.375C18.375 10.8918 17.9832 10.5 17.5 10.5Z" stroke="white" stroke-width="2" stroke-linecap="round" stroke-linejoin="round"/>
<path d="M7.875 14H3.5C3.01675 14 2.625 14.3918 2.625 14.875V17.5C2.625 17.9832 3.01675 18.375 3.5 18.375H7.875C8.35825 18.375 8.75 17.9832 8.75 17.5V14.875C8.75 14.3918 8.35825 14 7.875 14Z" stroke="white" stroke-width="2" stroke-linecap="round" stroke-linejoin="round"/>
</svg>
