<svg width="32" height="32" viewBox="0 0 32 32" fill="none" xmlns="http://www.w3.org/2000/svg">
<path d="M0 8C0 3.58172 3.58172 0 8 0H24C28.4183 0 32 3.58172 32 8V24C32 28.4183 28.4183 32 24 32H8C3.58172 32 0 28.4183 0 24V8Z" fill="#FEF9C3"/>
<path d="M16 9.33325V15.9999" stroke="#A16207" stroke-width="2" stroke-linecap="round" stroke-linejoin="round"/>
<path d="M20.2669 12.3999C21.1046 13.238 21.6755 14.3054 21.9074 15.4674C22.1393 16.6295 22.022 17.8342 21.5701 18.9297C21.1182 20.0251 20.3521 20.9623 19.3683 21.6229C18.3846 22.2835 17.2272 22.638 16.0422 22.6417C14.8572 22.6454 13.6977 22.2982 12.7098 21.6437C11.7219 20.9893 10.9499 20.057 10.4912 18.9644C10.0325 17.8718 9.9076 16.6678 10.1322 15.5043C10.3569 14.3408 10.921 13.2699 11.7535 12.4266" stroke="#A16207" stroke-width="2" stroke-linecap="round" stroke-linejoin="round"/>
</svg>
