<svg width="28" height="28" viewBox="0 0 28 28" fill="none" xmlns="http://www.w3.org/2000/svg">
<path d="M16.9586 25.3002C17.0029 25.4107 17.08 25.505 17.1794 25.5704C17.2789 25.6358 17.3959 25.6692 17.5149 25.6661C17.6339 25.6631 17.7491 25.6237 17.8451 25.5533C17.941 25.4829 18.0132 25.3848 18.0518 25.2722L25.6351 3.10557C25.6724 3.0022 25.6796 2.89033 25.6556 2.78305C25.6317 2.67577 25.5777 2.57753 25.5 2.49981C25.4223 2.42209 25.3241 2.36811 25.2168 2.34419C25.1095 2.32027 24.9976 2.3274 24.8943 2.36474L2.7276 9.94807C2.61501 9.98668 2.51693 10.0588 2.44652 10.1548C2.37611 10.2507 2.33674 10.3659 2.33369 10.4849C2.33064 10.6039 2.36406 10.721 2.42947 10.8204C2.49488 10.9199 2.58914 10.9969 2.6996 11.0412L11.9513 14.7512C12.2437 14.8683 12.5095 15.0434 12.7324 15.266C12.9554 15.4886 13.131 15.754 13.2486 16.0462L16.9586 25.3002Z" stroke="#4F46E5" stroke-width="2" stroke-linecap="round" stroke-linejoin="round"/>
<path d="M25.4962 2.50488L12.7329 15.267" stroke="#4F46E5" stroke-width="2" stroke-linecap="round" stroke-linejoin="round"/>
</svg>
