<svg width="21" height="21" viewBox="0 0 21 21" fill="none" xmlns="http://www.w3.org/2000/svg">
<path d="M12.7191 18.9752C12.7523 19.0581 12.8101 19.1288 12.8847 19.1778C12.9593 19.2269 13.0471 19.252 13.1363 19.2497C13.2255 19.2474 13.312 19.2179 13.3839 19.165C13.4559 19.1122 13.51 19.0387 13.5389 18.9542L19.2264 2.32924C19.2545 2.25171 19.2598 2.16781 19.2419 2.08735C19.2239 2.00689 19.1834 1.93321 19.1251 1.87492C19.0669 1.81663 18.9932 1.77615 18.9127 1.75821C18.8323 1.74027 18.7484 1.74561 18.6708 1.77361L2.04582 7.46111C1.96138 7.49007 1.88782 7.54417 1.83501 7.61614C1.7822 7.68811 1.75267 7.77451 1.75039 7.86375C1.7481 7.95299 1.77317 8.04079 1.82222 8.11537C1.87128 8.18996 1.94198 8.24775 2.02482 8.28099L8.96357 11.0635C9.18292 11.1513 9.38222 11.2826 9.54944 11.4496C9.71667 11.6165 9.84836 11.8155 9.93657 12.0347L12.7191 18.9752Z" stroke="white" stroke-width="2" stroke-linecap="round" stroke-linejoin="round"/>
<path d="M19.1223 1.87866L9.5498 11.4503" stroke="white" stroke-width="2" stroke-linecap="round" stroke-linejoin="round"/>
</svg>
