<svg width="20" height="20" viewBox="0 0 20 20" fill="none" xmlns="http://www.w3.org/2000/svg">
<path d="M12.9165 6.24992L14.8332 8.16659C14.9889 8.31927 15.1984 8.4048 15.4165 8.4048C15.6346 8.4048 15.8441 8.31927 15.9998 8.16659L17.7498 6.41659C17.9025 6.26081 17.9881 6.05138 17.9881 5.83325C17.9881 5.61512 17.9025 5.40569 17.7498 5.24992L15.8332 3.33325" stroke="#374151" stroke-width="2" stroke-linecap="round" stroke-linejoin="round"/>
<path d="M17.5 1.66675L9.5 9.66675" stroke="#374151" stroke-width="2" stroke-linecap="round" stroke-linejoin="round"/>
<path d="M6.24984 17.4999C8.78114 17.4999 10.8332 15.4479 10.8332 12.9166C10.8332 10.3853 8.78114 8.33325 6.24984 8.33325C3.71853 8.33325 1.6665 10.3853 1.6665 12.9166C1.6665 15.4479 3.71853 17.4999 6.24984 17.4999Z" stroke="#374151" stroke-width="2" stroke-linecap="round" stroke-linejoin="round"/>
</svg>
