<svg width="21" height="21" viewBox="0 0 21 21" fill="none" xmlns="http://www.w3.org/2000/svg">
<path d="M13.5625 6.5625L15.575 8.575C15.7386 8.73532 15.9585 8.82513 16.1875 8.82513C16.4165 8.82513 16.6364 8.73532 16.8 8.575L18.6375 6.7375C18.7978 6.57394 18.8876 6.35403 18.8876 6.125C18.8876 5.89597 18.7978 5.67606 18.6375 5.5125L16.625 3.5" stroke="white" stroke-width="2" stroke-linecap="round" stroke-linejoin="round"/>
<path d="M18.3751 1.75L9.9751 10.15" stroke="white" stroke-width="2" stroke-linecap="round" stroke-linejoin="round"/>
<path d="M6.5625 18.375C9.22037 18.375 11.375 16.2204 11.375 13.5625C11.375 10.9046 9.22037 8.75 6.5625 8.75C3.90463 8.75 1.75 10.9046 1.75 13.5625C1.75 16.2204 3.90463 18.375 6.5625 18.375Z" stroke="white" stroke-width="2" stroke-linecap="round" stroke-linejoin="round"/>
</svg>
