<svg width="28" height="28" viewBox="0 0 28 28" fill="none" xmlns="http://www.w3.org/2000/svg">
<path d="M18.0835 8.75008L20.7668 11.4334C20.9849 11.6472 21.2781 11.7669 21.5835 11.7669C21.8889 11.7669 22.1821 11.6472 22.4002 11.4334L24.8502 8.98341C25.0639 8.76533 25.1837 8.47213 25.1837 8.16675C25.1837 7.86137 25.0639 7.56817 24.8502 7.35008L22.1668 4.66675" stroke="#4F46E5" stroke-width="2" stroke-linecap="round" stroke-linejoin="round"/>
<path d="M24.4998 2.33325L13.2998 13.5333" stroke="#4F46E5" stroke-width="2" stroke-linecap="round" stroke-linejoin="round"/>
<path d="M8.75016 24.5001C12.294 24.5001 15.1668 21.6272 15.1668 18.0834C15.1668 14.5396 12.294 11.6667 8.75016 11.6667C5.20634 11.6667 2.3335 14.5396 2.3335 18.0834C2.3335 21.6272 5.20634 24.5001 8.75016 24.5001Z" stroke="#4F46E5" stroke-width="2" stroke-linecap="round" stroke-linejoin="round"/>
</svg>
