<svg width="40" height="40" viewBox="0 0 40 40" fill="none" xmlns="http://www.w3.org/2000/svg">
<path d="M0 12C0 5.37258 5.37258 0 12 0H28C34.6274 0 40 5.37258 40 12V28C40 34.6274 34.6274 40 28 40H12C5.37258 40 0 34.6274 0 28V12Z" fill="white"/>
<path d="M30 15L21.009 20.727C20.7039 20.9042 20.3573 20.9976 20.0045 20.9976C19.6517 20.9976 19.3051 20.9042 19 20.727L10 15" stroke="#4F46E5" stroke-width="2" stroke-linecap="round" stroke-linejoin="round"/>
<path d="M28 12H12C10.8954 12 10 12.8954 10 14V26C10 27.1046 10.8954 28 12 28H28C29.1046 28 30 27.1046 30 26V14C30 12.8954 29.1046 12 28 12Z" stroke="#4F46E5" stroke-width="2" stroke-linecap="round" stroke-linejoin="round"/>
</svg>
