<svg width="64" height="64" viewBox="0 0 64 64" fill="none" xmlns="http://www.w3.org/2000/svg">
<path d="M0 16C0 7.16344 7.16344 0 16 0H48C56.8366 0 64 7.16344 64 16V48C64 56.8366 56.8366 64 48 64H16C7.16344 64 0 56.8366 0 48V16Z" fill="#4F46E5"/>
<path d="M45.3337 25.3333L33.3457 32.9693C32.9388 33.2055 32.4768 33.33 32.0063 33.33C31.5359 33.33 31.0738 33.2055 30.667 32.9693L18.667 25.3333" stroke="white" stroke-width="2" stroke-linecap="round" stroke-linejoin="round"/>
<path d="M42.667 21.3333H21.3337C19.8609 21.3333 18.667 22.5272 18.667 23.9999V39.9999C18.667 41.4727 19.8609 42.6666 21.3337 42.6666H42.667C44.1397 42.6666 45.3337 41.4727 45.3337 39.9999V23.9999C45.3337 22.5272 44.1397 21.3333 42.667 21.3333Z" stroke="white" stroke-width="2" stroke-linecap="round" stroke-linejoin="round"/>
</svg>
