<svg width="28" height="28" viewBox="0 0 28 28" fill="none" xmlns="http://www.w3.org/2000/svg">
<path d="M17.5 14H11.6667" stroke="#4F46E5" stroke-width="2" stroke-linecap="round" stroke-linejoin="round"/>
<path d="M17.5 9.33325H11.6667" stroke="#4F46E5" stroke-width="2" stroke-linecap="round" stroke-linejoin="round"/>
<path d="M22.1667 19.8333V5.83333C22.1667 5.21449 21.9209 4.621 21.4833 4.18342C21.0457 3.74583 20.4522 3.5 19.8334 3.5H4.66669" stroke="#4F46E5" stroke-width="2" stroke-linecap="round" stroke-linejoin="round"/>
<path d="M9.33331 24.5H23.3333C23.9522 24.5 24.5456 24.2542 24.9832 23.8166C25.4208 23.379 25.6666 22.7855 25.6666 22.1667V21C25.6666 20.6906 25.5437 20.3938 25.3249 20.175C25.1061 19.9562 24.8094 19.8333 24.5 19.8333H12.8333C12.5239 19.8333 12.2271 19.9562 12.0084 20.175C11.7896 20.3938 11.6666 20.6906 11.6666 21V22.1667C11.6666 22.7855 11.4208 23.379 10.9832 23.8166C10.5456 24.2542 9.95215 24.5 9.33331 24.5ZM9.33331 24.5C8.71447 24.5 8.12098 24.2542 7.6834 23.8166C7.24581 23.379 6.99998 22.7855 6.99998 22.1667V5.83333C6.99998 5.21449 6.75415 4.621 6.31656 4.18342C5.87898 3.74583 5.28549 3.5 4.66665 3.5C4.04781 3.5 3.45432 3.74583 3.01673 4.18342C2.57915 4.621 2.33331 5.21449 2.33331 5.83333V8.16667C2.33331 8.47609 2.45623 8.77283 2.67502 8.99162C2.89381 9.21042 3.19056 9.33333 3.49998 9.33333H6.99998" stroke="#4F46E5" stroke-width="2" stroke-linecap="round" stroke-linejoin="round"/>
</svg>
