<svg width="48" height="48" viewBox="0 0 48 48" fill="none" xmlns="http://www.w3.org/2000/svg">
<path d="M0 12C0 5.37258 5.37258 0 12 0H36C42.6274 0 48 5.37258 48 12V36C48 42.6274 42.6274 48 36 48H12C5.37258 48 0 42.6274 0 36V12Z" fill="#DCFCE7"/>
<path d="M33.8011 22C34.2578 24.2413 33.9323 26.5714 32.879 28.6018C31.8256 30.6322 30.108 32.24 28.0126 33.1573C25.9172 34.0746 23.5707 34.2458 21.3644 33.6424C19.1581 33.0389 17.2253 31.6974 15.8884 29.8414C14.5515 27.9854 13.8912 25.7272 14.0178 23.4434C14.1443 21.1595 15.05 18.9881 16.5838 17.2912C18.1175 15.5942 20.1867 14.4744 22.4462 14.1184C24.7056 13.7625 27.0189 14.1918 29.0001 15.335" stroke="#16A34A" stroke-width="2" stroke-linecap="round" stroke-linejoin="round"/>
<path d="M21 23L24 26L34 16" stroke="#16A34A" stroke-width="2" stroke-linecap="round" stroke-linejoin="round"/>
</svg>
